<!DOCTYPE svg PUBLIC "-//W3C//DTD SVG 1.1//EN" "http://www.w3.org/Graphics/SVG/1.1/DTD/svg11.dtd">
<!-- Uploaded to: SVG Repo, www.svgrepo.com, Transformed by: SVG Repo Mixer Tools -->
<svg fill="#ffffff" height="800px" width="800px" version="1.1" id="Layer_1" xmlns="http://www.w3.org/2000/svg" xmlns:xlink="http://www.w3.org/1999/xlink" viewBox="0 0 512 512" xml:space="preserve" stroke="#ffffff">
<g id="SVGRepo_bgCarrier" stroke-width="0"/>
<g id="SVGRepo_tracerCarrier" stroke-linecap="round" stroke-linejoin="round"/>
<g id="SVGRepo_iconCarrier"> <g> <g> <path d="M452.085,105.496c-33.037,0-59.915,26.878-59.915,59.915c0,14.026,4.857,26.93,12.96,37.151l-63.291,87.72 c-13.177-4.807-27.755-4.816-40.956,0l-63.291-87.72c8.103-10.22,12.96-23.125,12.96-37.15c0-33.037-26.878-59.915-59.915-59.915 s-59.915,26.878-59.915,59.915c0,14.026,4.857,26.93,12.96,37.15l-63.291,87.72C41.325,276.029,0,305.194,0,346.589 c0,33.037,26.878,59.915,59.915,59.915c33.037,0,59.915-26.878,59.915-59.915c0-14.026-4.857-26.93-12.96-37.15l63.291-87.72 c13.177,4.807,27.755,4.816,40.956,0l63.291,87.72c-8.103,10.22-12.96,23.125-12.96,37.15c0,33.037,26.878,59.915,59.915,59.915 c33.037,0,59.915-26.878,59.915-59.915c0-14.026-4.857-26.93-12.96-37.15l63.291-87.72C470.674,235.971,512,206.806,512,165.411 C512,132.374,485.122,105.496,452.085,105.496z M59.915,373.823c-15.017,0-27.234-12.217-27.234-27.234 c0-15.017,12.217-27.234,27.234-27.234s27.234,12.217,27.234,27.234C87.149,361.606,74.932,373.823,59.915,373.823z M190.638,192.645c-15.017,0-27.234-12.217-27.234-27.234c0-15.017,12.217-27.234,27.234-27.234s27.234,12.217,27.234,27.234 C217.872,180.428,205.655,192.645,190.638,192.645z M321.362,373.823c-15.017,0-27.234-12.217-27.234-27.234 c0-15.017,12.217-27.234,27.234-27.234s27.234,12.217,27.234,27.234C348.596,361.606,336.379,373.823,321.362,373.823z M452.085,192.645c-15.017,0-27.234-12.217-27.234-27.234c0-15.017,12.217-27.234,27.234-27.234 c15.017,0,27.234,12.217,27.234,27.234C479.319,180.428,467.102,192.645,452.085,192.645z"/> </g> </g> </g>
</svg>