<!DOCTYPE svg PUBLIC "-//W3C//DTD SVG 1.1//EN" "http://www.w3.org/Graphics/SVG/1.1/DTD/svg11.dtd">
<!-- Uploaded to: SVG Repo, www.svgrepo.com, Transformed by: SVG Repo Mixer Tools -->
<svg height="800px" width="800px" version="1.1" id="_x32_" xmlns="http://www.w3.org/2000/svg" xmlns:xlink="http://www.w3.org/1999/xlink" viewBox="0 0 512 512" xml:space="preserve" fill="#ffffff" stroke="#ffffff">
<g id="SVGRepo_bgCarrier" stroke-width="0"/>
<g id="SVGRepo_tracerCarrier" stroke-linecap="round" stroke-linejoin="round"/>
<g id="SVGRepo_iconCarrier"> <style type="text/css"> .st0{fill:#ffffff;} </style> <g> <path class="st0" d="M498.454,338.25c-10.172-6.251-24.735-1.662-38.545,14.208l-57.203-35.156 c10.711-21.57,16.888-45.78,16.888-71.495c0-13.964-1.963-27.437-5.298-40.35l38.834-11.56 c7.812,13.439,19.598,18.668,30.772,15.336c14.138-4.205,21.823-20.319,15.087-42.956c-6.733-22.645-21.981-31.931-36.128-27.734 c-11.419,3.401-18.479,14.655-17.282,30.751l-39.612,11.786c-10.426-23.73-26.37-44.46-46.261-60.557l14.855-23.826 c14.344,5.203,25.854,2.37,31.196-6.199c6.759-10.841,1.141-26.571-18.676-38.925c-19.817-12.346-36.42-10.475-43.179,0.367 c-5.461,8.752-2.684,20.686,8.962,31.467l-14.2,22.768c-23.642-13.622-50.987-21.526-80.229-21.526 c-10.623,0-20.984,1.093-31.035,3.051l-14.44-39.695c15.724-9.609,21.78-22.252,17.797-33.199 C225.718,0.94,206.727-4.892,180.161,4.788c-26.567,9.661-37.387,26.326-32.333,40.192c4.07,11.2,17.338,16.98,36.245,13.771 l13.75,37.789c-36.902,15.004-66.865,43.288-84.208,78.918l-53.614-24.805c3.93-16.534-0.406-28.714-10.147-33.198 c-12.341-5.718-28.49,2.929-39.424,26.57c-10.938,23.634-7.065,41.54,5.28,47.259c9.963,4.607,22.362-0.315,32.543-14.76 l55.201,25.522c-3.93,13.929-6.177,28.573-6.177,43.761c0,12.599,1.591,24.796,4.323,36.565L66.934,297.76 c-10.496-14.575-23.467-19.488-34.182-14.733c-13.57,6.025-18.326,25.015-7.161,50.161c11.152,25.119,28.42,34.353,41.994,28.328 c10.96-4.861,15.996-18.273,11.72-36.459l31.795-14.112c13.294,30.024,35.498,55.118,63.241,72.15l-19.222,34.378 c-14.968-4.179-27.06,0.297-32.744,10.466c-7.205,12.87-1.473,29.788,19.144,41.312c20.616,11.542,38.016,7.555,45.23-5.315 c5.81-10.405,3.026-23.389-9.054-34.09l19.559-34.983c18.873,7.755,39.512,12.101,61.182,12.101c7.515,0,14.85-0.699,22.094-1.688 l15.309,67.91c-14.631,6.26-21.386,15.72-19.366,24.673c2.567,11.367,18.038,17.557,41.925,12.171 c23.882-5.394,35.21-17.618,32.644-28.975c-2.068-9.172-12.665-14.864-29.207-13.92l-15.219-67.516 c31.136-9.74,58.126-28.731,77.961-53.684l57.78,35.516c-7.279,18.851-4.674,33.382,5.272,39.485 c12.6,7.747,31.944-0.839,48.229-27.323C512.137,367.121,511.053,345.971,498.454,338.25z"/> </g> </g>
</svg>