<!DOCTYPE svg PUBLIC "-//W3C//DTD SVG 1.1//EN" "http://www.w3.org/Graphics/SVG/1.1/DTD/svg11.dtd">
<!-- Uploaded to: SVG Repo, www.svgrepo.com, Transformed by: SVG Repo Mixer Tools -->
<svg fill="#ffffff" height="800px" width="800px" version="1.1" id="Layer_1" xmlns="http://www.w3.org/2000/svg" xmlns:xlink="http://www.w3.org/1999/xlink" viewBox="0 0 512 512" xml:space="preserve" stroke="#ffffff">
<g id="SVGRepo_bgCarrier" stroke-width="0"/>
<g id="SVGRepo_tracerCarrier" stroke-linecap="round" stroke-linejoin="round"/>
<g id="SVGRepo_iconCarrier"> <g> <g> <path d="M139.13,0H38.957c-9.217,0-16.696,7.479-16.696,16.696v478.609c0,9.217,7.479,16.696,16.696,16.696H139.13 c9.217,0,16.696-7.479,16.696-16.696V16.696C155.826,7.479,148.348,0,139.13,0z"/> </g> </g> <g> <g> <path d="M306.087,267.13H205.913c-9.217,0-16.696,7.479-16.696,16.696v211.478c0,9.217,7.479,16.696,16.696,16.696h100.174 c9.217,0,16.696-7.479,16.696-16.696V283.826C322.783,274.609,315.304,267.13,306.087,267.13z"/> </g> </g> <g> <g> <path d="M473.043,133.565H372.87c-9.217,0-16.696,7.479-16.696,16.696v345.043c0,9.217,7.479,16.696,16.696,16.696h100.174 c9.217,0,16.696-7.479,16.696-16.696V150.261C489.739,141.044,482.261,133.565,473.043,133.565z"/> </g> </g> </g>
</svg>